<svg width="34" height="53" viewBox="0 0 34 53" fill="none" xmlns="http://www.w3.org/2000/svg">
<path d="M34 16.5V50.5C34 51.6046 33.1046 52.5 32 52.5H2C0.895431 52.5 0 51.6046 0 50.5V16.5C0 15.3954 0.895431 14.5 2 14.5H10C11.1046 14.5 12 13.6046 12 12.5V10.0625C12 9.75184 11.7482 9.5 11.4375 9.5H7.75C5.12665 9.5 3 7.37335 3 4.75C3 2.12665 5.12665 0 7.75 0H27.25C29.8734 0 32 2.12665 32 4.75C32 7.37335 29.8734 9.5 27.25 9.5H23.0938C22.7658 9.5 22.5 9.76583 22.5 10.0938V12.5C22.5 13.6046 23.3954 14.5 24.5 14.5H32C33.1046 14.5 34 15.3954 34 16.5Z" fill="#A1AFBC"/>
</svg>
